<svg height="512pt" viewBox="-65 0 512 512" width="512pt" xmlns="http://www.w3.org/2000/svg"><path d="m351.160156 0h-319.625c-17.386718 0-31.535156 14.148438-31.535156 31.535156v253.472656c0 4.140626 3.359375 7.5 7.5 7.5 4.144531 0 7.503906-3.359374 7.503906-7.5v-253.472656c0-9.117187 7.417969-16.53125 16.53125-16.53125h319.625c9.117188 0 16.53125 7.417969 16.53125 16.53125v448.929688c0 9.117187-7.417968 16.53125-16.53125 16.53125h-319.625c-9.117187 0-16.53125-7.417969-16.53125-16.53125v-148.117188c0-4.140625-3.359375-7.5-7.503906-7.5-4.140625 0-7.5 3.359375-7.5 7.5v148.117188c0 17.386718 14.148438 31.535156 31.535156 31.535156h319.625c17.386719 0 31.535156-14.148438 31.535156-31.535156v-448.929688c0-17.386718-14.148437-31.535156-31.535156-31.535156zm0 0"/><path d="m115.335938 56.425781c4.140624 0 7.5-3.359375 7.5-7.503906 0-4.140625-3.359376-7.5-7.5-7.5h-67.972657c-6.894531 0-12.503906 5.609375-12.503906 12.503906v38.089844c0 6.894531 5.609375 12.5 12.503906 12.5h287.96875c6.894531 0 12.503907-5.605469 12.503907-12.5v-38.089844c0-6.894531-5.609376-12.503906-12.503907-12.503906h-172.988281c-4.144531 0-7.503906 3.359375-7.503906 7.5 0 4.144531 3.359375 7.503906 7.503906 7.503906h170.488281v33.089844h-282.96875v-33.089844zm0 0"/><path d="m34.859375 246.097656c0 10.847656 8.828125 19.671875 19.671875 19.671875h273.632812c10.847657 0 19.671876-8.824219 19.671876-19.671875v-103.050781c0-10.847656-8.824219-19.671875-19.671876-19.671875h-273.632812c-10.84375 0-19.671875 8.824219-19.671875 19.671875zm53.65625 4.667969 70.8125-70.78125 55.640625 62.707031c2.746094 3.097656 7.488281 3.382813 10.589844.628906 3.097656-2.746093 3.378906-7.488281.628906-10.589843l-6.773438-7.632813 28.265626-28.253906 47.847656 53.921875zm-38.652344-107.71875c0-2.574219 2.09375-4.667969 4.667969-4.667969h273.632812c2.574219 0 4.667969 2.09375 4.667969 4.667969v103.050781c0 2.574219-2.09375 4.667969-4.667969 4.667969h-12.578124l-58.445313-65.863281c-2.273437-2.566406-5.546875-4.097656-8.976563-4.199219-3.4375-.109375-6.785156 1.226563-9.210937 3.652344l-29.511719 29.5-40.652344-45.8125c-2.277343-2.566407-5.546874-4.097657-8.976562-4.199219-3.429688-.105469-6.785156 1.230469-9.210938 3.65625l-83.308593 83.265625h-12.757813c-2.574218 0-4.667968-2.09375-4.667968-4.667969v-103.050781zm0 0"/><path d="m34.859375 387.972656c0 12.738282 10.363281 23.097656 23.097656 23.097656h90.355469c12.738281 0 23.097656-10.359374 23.097656-23.097656v-80.246094c0-12.734374-10.359375-23.097656-23.097656-23.097656h-90.355469c-12.734375 0-23.097656 10.363282-23.097656 23.097656zm121.546875-4.207031-41.953125-37.132813 41.953125-37.132812zm-8.734375 12.304687h-89.074219l44.539063-39.421874zm-44.535156-59.453124-41.785157-36.984376h83.570313zm-11.320313 10.015624-41.953125 37.132813v-74.265625zm0 0"/><path d="m347.835938 307.726562c0-12.734374-10.363282-23.097656-23.097657-23.097656h-90.355469c-12.738281 0-23.097656 10.363282-23.097656 23.097656v80.246094c0 12.738282 10.359375 23.097656 23.097656 23.097656h90.355469c12.734375 0 23.097657-10.359374 23.097657-23.097656zm-121.546876 1.773438 41.953126 37.132812-41.953126 37.132813zm11.484376-9.867188h83.570312l-41.785156 36.984376zm41.785156 57.015626 44.539062 39.421874h-89.074218zm11.320312-10.015626 41.953125-37.132812v74.265625zm0 0"/><path d="m45.367188 477.371094h33.375c4.144531 0 7.503906-3.359375 7.503906-7.5 0-4.144532-3.359375-7.5-7.503906-7.5h-33.375c-4.144532 0-7.503907 3.355468-7.503907 7.5 0 4.140625 3.359375 7.5 7.503907 7.5zm0 0"/><path d="m106.140625 477.371094h54.765625c4.140625 0 7.5-3.359375 7.5-7.5 0-4.144532-3.359375-7.5-7.5-7.5h-54.765625c-4.144531 0-7.503906 3.355468-7.503906 7.5 0 4.140625 3.359375 7.5 7.503906 7.5zm0 0"/><path d="m45.367188 444.933594h14.214843c4.144531 0 7.503907-3.359375 7.503907-7.5 0-4.144532-3.359376-7.503906-7.503907-7.503906h-14.214843c-4.144532 0-7.503907 3.359374-7.503907 7.503906 0 4.140625 3.359375 7.5 7.503907 7.5zm0 0"/><path d="m160.246094 444.933594c4.140625 0 7.5-3.359375 7.5-7.5 0-4.144532-3.359375-7.503906-7.5-7.503906h-15.570313c-4.144531 0-7.5 3.359374-7.5 7.503906 0 4.140625 3.355469 7.5 7.5 7.5zm0 0"/><path d="m127 437.433594c0-4.144532-3.359375-7.503906-7.503906-7.503906h-34.832032c-4.140624 0-7.5 3.359374-7.5 7.503906 0 4.140625 3.359376 7.5 7.5 7.5h34.832032c4.144531 0 7.503906-3.359375 7.503906-7.5zm0 0"/><path d="m221.789062 477.371094h33.378907c4.140625 0 7.5-3.359375 7.5-7.5 0-4.144532-3.359375-7.5-7.5-7.5h-33.378907c-4.140624 0-7.5 3.355468-7.5 7.5 0 4.140625 3.359376 7.5 7.5 7.5zm0 0"/><path d="m282.5625 477.371094h54.765625c4.144531 0 7.503906-3.359375 7.503906-7.5 0-4.144532-3.359375-7.5-7.503906-7.5h-54.765625c-4.140625 0-7.5 3.355468-7.5 7.5 0 4.140625 3.359375 7.5 7.5 7.5zm0 0"/><path d="m221.789062 444.933594h14.21875c4.140626 0 7.5-3.359375 7.5-7.5 0-4.144532-3.359374-7.503906-7.5-7.503906h-14.21875c-4.140624 0-7.5 3.359374-7.5 7.503906 0 4.140625 3.359376 7.5 7.5 7.5zm0 0"/><path d="m336.667969 444.933594c4.144531 0 7.503906-3.359375 7.503906-7.5 0-4.144532-3.359375-7.503906-7.503906-7.503906h-15.570313c-4.140625 0-7.5 3.359374-7.5 7.503906 0 4.140625 3.359375 7.5 7.5 7.5zm0 0"/><path d="m303.421875 437.433594c0-4.144532-3.359375-7.503906-7.5-7.503906h-34.832031c-4.144532 0-7.503906 3.359374-7.503906 7.503906 0 4.140625 3.359374 7.5 7.503906 7.5h34.832031c4.140625 0 7.5-3.359375 7.5-7.5zm0 0"/></svg>